<svg width="110" height="92" viewBox="0 0 110 92" fill="none" xmlns="http://www.w3.org/2000/svg">
<path d="M9.27632 14.9754C10.7832 14.4244 12.4028 14.1277 14.0927 14.1277H52.0889L47.1105 9.13355C45.7903 7.80873 43.9995 7.06425 42.1322 7.06385H29.2039H16.2756C14.431 7.06351 12.66 7.78928 11.3432 9.08512C10.0264 10.381 9.26912 12.1434 9.23407 13.9935L9.27632 14.9754Z" fill="#D9D9D9"/>
<path fill-rule="evenodd" clip-rule="evenodd" d="M67.876 14.1277H95.9155C97.8724 14.1275 99.808 14.5364 101.599 15.3285C103.389 16.1205 104.996 17.2782 106.316 18.7278C107.635 20.1774 108.639 21.887 109.264 23.7475C109.888 25.6081 110.119 27.5788 109.942 29.5339L105.457 78.9809C105.139 82.491 103.524 85.7551 100.93 88.1325C98.3366 90.5098 94.9505 91.8286 91.437 91.83H18.5641C15.0507 91.8286 11.6646 90.5098 9.07069 88.1325C6.47678 85.7551 4.86237 82.491 4.54441 78.9809L0.0589433 29.5339C-0.241123 26.2618 0.610958 22.9877 2.46715 20.2803L2.19253 14.1277C2.19253 10.3808 3.67628 6.78736 6.31737 4.13791C8.95846 1.48845 12.5405 0 16.2756 0H42.1322C45.8669 0.000800156 49.4484 1.48977 52.0889 4.13941L57.9193 9.98828C60.5598 12.6379 64.1413 14.1269 67.876 14.1277ZM14.0927 14.1277C12.4028 14.1277 10.7832 14.4244 9.27632 14.9754L9.23407 13.9935C9.26912 12.1434 10.0264 10.381 11.3432 9.08512C12.66 7.78928 14.431 7.06351 16.2756 7.06385H29.2039H42.1322C43.9995 7.06425 45.7903 7.80873 47.1105 9.13355L52.0889 14.1277H14.0927Z" fill="#D9D9D9"/>
</svg>
