<svg width="110" height="92" viewBox="0 0 110 92" fill="none" xmlns="http://www.w3.org/2000/svg">
<path d="M9.27632 14.9747C10.7832 14.4238 12.4028 14.1271 14.0927 14.1271H52.0889L47.1105 9.13316C45.7903 7.8084 43.9995 7.06394 42.1322 7.06354H29.2039H16.2756C14.431 7.06321 12.66 7.78895 11.3432 9.08473C10.0264 10.3805 9.26912 12.1429 9.23407 13.9929L9.27632 14.9747Z" fill="white"/>
<path fill-rule="evenodd" clip-rule="evenodd" d="M67.876 14.1271H95.9155C97.8725 14.1269 99.808 14.5358 101.599 15.3278C103.389 16.1198 104.996 17.2775 106.316 18.727C107.635 20.1765 108.639 21.886 109.264 23.7465C109.888 25.607 110.119 27.5776 109.942 29.5327L105.457 78.9775C105.139 82.4875 103.524 85.7515 100.93 88.1287C98.3366 90.5059 94.9505 91.8247 91.437 91.8261H18.5641C15.0507 91.8247 11.6646 90.5059 9.07069 88.1287C6.47678 85.7515 4.86237 82.4875 4.54441 78.9775L0.0589433 29.5327C-0.241123 26.2607 0.610958 22.9867 2.46715 20.2794L2.19253 14.1271C2.19253 10.3804 3.67628 6.78707 6.31737 4.13773C8.95846 1.48839 12.5405 0 16.2756 0H42.1322C45.8669 0.000800122 49.4484 1.48971 52.0889 4.13924L57.9193 9.98785C60.5598 12.6374 64.1413 14.1263 67.876 14.1271ZM14.0927 14.1271C12.4028 14.1271 10.7832 14.4238 9.27632 14.9747L9.23407 13.9929C9.26912 12.1429 10.0264 10.3805 11.3432 9.08473C12.66 7.78895 14.431 7.06321 16.2756 7.06354H29.2039H42.1322C43.9995 7.06394 45.7903 7.8084 47.1105 9.13316L52.0889 14.1271H14.0927Z" fill="#77BAF9"/>
</svg>
