<svg width="125" height="31" viewBox="0 0 125 31" fill="none" xmlns="http://www.w3.org/2000/svg">
<path d="M23.4441 15.5C25.1475 15.8248 26.5819 16.3267 27.7474 17.0057C28.9428 17.6848 29.5404 18.6443 29.5404 19.8843C29.5404 20.77 29.2267 21.8476 28.5991 23.1171C27.9715 24.3867 27.0302 25.6119 25.775 26.7929C24.5498 27.9443 23.0108 28.9333 21.158 29.76C19.335 30.5867 17.1983 31 14.7478 31C12.3272 31 10.1905 30.5867 8.33767 29.76C6.51474 28.9333 4.9757 27.9443 3.72057 26.7929C2.49532 25.6119 1.56892 24.3867 0.941349 23.1171C0.313783 21.8476 0 20.77 0 19.8843C0 18.6443 0.58274 17.6848 1.74822 17.0057C2.94358 16.3267 4.39296 15.8248 6.09636 15.5C4.39296 15.1752 2.94358 14.6733 1.74822 13.9943C0.58274 13.3152 0 12.3557 0 11.1157C0 10.23 0.313783 9.15238 0.941349 7.88286C1.56892 6.61333 2.49532 5.40286 3.72057 4.25143C4.9757 3.07048 6.51474 2.06667 8.33767 1.24C10.1905 0.413333 12.3272 0 14.7478 0C17.1983 0 19.335 0.413333 21.158 1.24C23.0108 2.06667 24.5498 3.07048 25.775 4.25143C27.0302 5.40286 27.9715 6.61333 28.5991 7.88286C29.2267 9.15238 29.5404 10.23 29.5404 11.1157C29.5404 12.3557 28.9428 13.3152 27.7474 13.9943C26.5819 14.6733 25.1475 15.1752 23.4441 15.5ZM1.25513 11.16C1.25513 11.8686 1.62868 12.459 2.37579 12.9314C3.15277 13.4038 4.16883 13.7876 5.42397 14.0829C6.6791 14.3486 8.11354 14.5552 9.72728 14.7029C11.3709 14.821 13.0444 14.88 14.7478 14.88C16.511 14.88 18.1994 14.821 19.8132 14.7029C21.4269 14.5552 22.8613 14.3486 24.1165 14.0829C25.3716 13.7876 26.3727 13.4038 27.1198 12.9314C27.8968 12.459 28.2853 11.8686 28.2853 11.16C28.2853 9.80191 27.1348 8.82762 24.8337 8.23714C22.5625 7.64667 19.3649 7.35143 15.2409 7.35143H14.2995C10.1457 7.35143 6.93311 7.64667 4.66192 8.23714C2.39073 8.82762 1.25513 9.80191 1.25513 11.16ZM15.2409 23.6486C19.3649 23.6486 22.5625 23.3533 24.8337 22.7629C27.1348 22.1724 28.2853 21.1981 28.2853 19.84C28.2853 19.1314 27.8968 18.541 27.1198 18.0686C26.3727 17.5962 25.3716 17.2124 24.1165 16.9171C22.8613 16.6219 21.412 16.4152 19.7683 16.2971C18.1546 16.179 16.4811 16.12 14.7478 16.12C13.0145 16.12 11.3261 16.179 9.68245 16.2971C8.06871 16.4152 6.63427 16.6219 5.37914 16.9171C4.12401 17.2124 3.12289 17.5962 2.37579 18.0686C1.62868 18.541 1.25513 19.1314 1.25513 19.84C1.25513 21.1981 2.39073 22.1724 4.66192 22.7629C6.93311 23.3533 10.1457 23.6486 14.2995 23.6486H15.2409ZM46.6977 0C48.67 0 50.5378 0.413333 52.3009 1.24C54.0641 2.03714 55.6031 3.14429 56.918 4.56143C58.2329 5.94905 59.2639 7.58762 60.011 9.47714C60.7581 11.3371 61.1317 13.3448 61.1317 15.5C61.1317 17.6257 60.7581 19.6333 60.011 21.5229C59.2639 23.4124 58.2329 25.0657 56.918 26.4829C55.6031 27.8705 54.0641 28.9776 52.3009 29.8043C50.5378 30.6014 48.67 31 46.6977 31C44.6954 31 42.8127 30.6014 41.0496 29.8043C39.2864 28.9776 37.7474 27.8705 36.4325 26.4829C35.1474 25.0657 34.1164 23.4124 33.3395 21.5229C32.5924 19.6333 32.2188 17.6257 32.2188 15.5C32.2188 13.3448 32.5924 11.3371 33.3395 9.47714C34.1164 7.58762 35.1474 5.94905 36.4325 4.56143C37.7474 3.14429 39.2864 2.03714 41.0496 1.24C42.8127 0.413333 44.6954 0 46.6977 0ZM46.6977 23.6486C48.5206 23.6486 50.224 23.4419 51.8078 23.0286C53.4216 22.5857 54.8261 21.9952 56.0215 21.2571C57.2169 20.519 58.1582 19.6629 58.8455 18.6886C59.5628 17.6848 59.9214 16.6219 59.9214 15.5C59.9214 14.3781 59.5628 13.33 58.8455 12.3557C58.1582 11.3519 57.2169 10.481 56.0215 9.74286C54.8261 9.00476 53.4216 8.42905 51.8078 8.01572C50.224 7.57286 48.5206 7.35143 46.6977 7.35143C44.8747 7.35143 43.1564 7.57286 41.5426 8.01572C39.9289 8.42905 38.5244 9.00476 37.329 9.74286C36.1336 10.481 35.1923 11.3519 34.5049 12.3557C33.8176 13.33 33.4739 14.3781 33.4739 15.5C33.4739 16.6219 33.8176 17.6848 34.5049 18.6886C35.1923 19.6629 36.1336 20.519 37.329 21.2571C38.5244 21.9952 39.9289 22.5857 41.5426 23.0286C43.1564 23.4419 44.8747 23.6486 46.6977 23.6486ZM87.3124 15.5C89.0158 15.8248 90.4502 16.3267 91.6157 17.0057C92.8111 17.6848 93.4088 18.6443 93.4088 19.8843C93.4088 20.77 93.095 21.8476 92.4674 23.1171C91.8398 24.3867 90.8985 25.6119 89.6434 26.7929C88.4181 27.9443 86.8791 28.9333 85.0263 29.76C83.2033 30.5867 81.0666 31 78.6161 31C76.1955 31 74.059 30.5867 72.2062 29.76C70.3833 28.9333 68.8442 27.9443 67.5891 26.7929C66.3639 25.6119 65.4375 24.3867 64.8099 23.1171C64.1823 21.8476 63.8685 20.77 63.8685 19.8843C63.8685 18.6443 64.4513 17.6848 65.6168 17.0057C66.8121 16.3267 68.2615 15.8248 69.9649 15.5C68.2615 15.1752 66.8121 14.6733 65.6168 13.9943C64.4513 13.3152 63.8685 12.3557 63.8685 11.1157C63.8685 10.23 64.1823 9.15238 64.8099 7.88286C65.4375 6.61333 66.3639 5.40286 67.5891 4.25143C68.8442 3.07048 70.3833 2.06667 72.2062 1.24C74.059 0.413333 76.1955 0 78.6161 0C81.0666 0 83.2033 0.413333 85.0263 1.24C86.8791 2.06667 88.4181 3.07048 89.6434 4.25143C90.8985 5.40286 91.8398 6.61333 92.4674 7.88286C93.095 9.15238 93.4088 10.23 93.4088 11.1157C93.4088 12.3557 92.8111 13.3152 91.6157 13.9943C90.4502 14.6733 89.0158 15.1752 87.3124 15.5ZM65.1237 11.16C65.1237 11.8686 65.4972 12.459 66.2443 12.9314C67.0213 13.4038 68.0374 13.7876 69.2925 14.0829C70.5476 14.3486 71.9821 14.5552 73.5958 14.7029C75.2392 14.821 76.9127 14.88 78.6161 14.88C80.3793 14.88 82.0677 14.821 83.6815 14.7029C85.2952 14.5552 86.7297 14.3486 87.9848 14.0829C89.2399 13.7876 90.241 13.4038 90.9881 12.9314C91.7651 12.459 92.1536 11.8686 92.1536 11.16C92.1536 9.80191 91.0031 8.82762 88.702 8.23714C86.4308 7.64667 83.2332 7.35143 79.1092 7.35143H78.1679C74.0142 7.35143 70.8017 7.64667 68.5305 8.23714C66.2593 8.82762 65.1237 9.80191 65.1237 11.16ZM79.1092 23.6486C83.2332 23.6486 86.4308 23.3533 88.702 22.7629C91.0031 22.1724 92.1536 21.1981 92.1536 19.84C92.1536 19.1314 91.7651 18.541 90.9881 18.0686C90.241 17.5962 89.2399 17.2124 87.9848 16.9171C86.7297 16.6219 85.2803 16.4152 83.6367 16.2971C82.0229 16.179 80.3494 16.12 78.6161 16.12C76.8828 16.12 75.1944 16.179 73.551 16.2971C71.9372 16.4152 70.5028 16.6219 69.2477 16.9171C67.9925 17.2124 66.9914 17.5962 66.2443 18.0686C65.4972 18.541 65.1237 19.1314 65.1237 19.84C65.1237 21.1981 66.2593 22.1724 68.5305 22.7629C70.8017 23.3533 74.0142 23.6486 78.1679 23.6486H79.1092ZM110.566 0C112.538 0 114.406 0.413333 116.169 1.24C117.932 2.03714 119.471 3.14429 120.786 4.56143C122.101 5.94905 123.132 7.58762 123.879 9.47714C124.626 11.3371 125 13.3448 125 15.5C125 17.6257 124.626 19.6333 123.879 21.5229C123.132 23.4124 122.101 25.0657 120.786 26.4829C119.471 27.8705 117.932 28.9776 116.169 29.8043C114.406 30.6014 112.538 31 110.566 31C108.564 31 106.681 30.6014 104.918 29.8043C103.155 28.9776 101.616 27.8705 100.301 26.4829C99.0158 25.0657 97.9848 23.4124 97.2078 21.5229C96.4607 19.6333 96.0871 17.6257 96.0871 15.5C96.0871 13.3448 96.4607 11.3371 97.2078 9.47714C97.9848 7.58762 99.0158 5.94905 100.301 4.56143C101.616 3.14429 103.155 2.03714 104.918 1.24C106.681 0.413333 108.564 0 110.566 0ZM110.566 23.6486C112.389 23.6486 114.092 23.4419 115.676 23.0286C117.29 22.5857 118.694 21.9952 119.89 21.2571C121.085 20.519 122.027 19.6629 122.714 18.6886C123.431 17.6848 123.79 16.6219 123.79 15.5C123.79 14.3781 123.431 13.33 122.714 12.3557C122.027 11.3519 121.085 10.481 119.89 9.74286C118.694 9.00476 117.29 8.42905 115.676 8.01572C114.092 7.57286 112.389 7.35143 110.566 7.35143C108.743 7.35143 107.025 7.57286 105.411 8.01572C103.797 8.42905 102.393 9.00476 101.197 9.74286C100.002 10.481 99.0606 11.3519 98.3733 12.3557C97.6859 13.33 97.3423 14.3781 97.3423 15.5C97.3423 16.6219 97.6859 17.6848 98.3733 18.6886C99.0606 19.6629 100.002 20.519 101.197 21.2571C102.393 21.9952 103.797 22.5857 105.411 23.0286C107.025 23.4419 108.743 23.6486 110.566 23.6486Z" fill="white"/>
</svg>
